STARTFONT 2.1
COMMENT
COMMENT Converted from OpenType font "Q:\font stuff\winfont\Mad scientist .ttf" by "otf2bdf 3.0".
COMMENT
FONT -FreeType-Mad scientist -Medium-R-Normal--34-340-72-72-P-163-ISO10646-1
SIZE 34 72 72
FONTBOUNDINGBOX 30 42 -3 -3
STARTPROPERTIES 19
FOUNDRY "FreeType"
FAMILY_NAME "Mad scientist "
WEIGHT_NAME "Medium"
SLANT "R"
SETWIDTH_NAME "Normal"
ADD_STYLE_NAME ""
PIXEL_SIZE 34
POINT_SIZE 340
RESOLUTION_X 72
RESOLUTION_Y 72
SPACING "P"
AVERAGE_WIDTH 163
CHARSET_REGISTRY "ISO10646"
CHARSET_ENCODING "1"
FONT_ASCENT 38
FONT_DESCENT 6
COPYRIGHT "(c) Jakob Fischer at www.pizzadude.dk - DO NOT DISTRIBUTE WITHOUT AUTHOR'S PERMISSION!"
_OTF_FONTFILE "Q:\font stuff\winfont\Mad scientist .ttf"
_OTF_PSNAME "Madscientist"
ENDPROPERTIES
CHARS 151
STARTCHAR 0020
ENCODING 32
SWIDTH 264 0
DWIDTH 9 0
BBX 0 0 0 0
BITMAP
ENDCHAR
STARTCHAR 0021
ENCODING 33
SWIDTH 264 0
DWIDTH 9 0
BBX 8 26 0 2
BITMAP
0E
13
23
23
23
23
23
23
22
22
62
42
42
42
42
42
42
66
38
00
70
C8
88
88
C8
70
ENDCHAR
STARTCHAR 0022
ENCODING 34
SWIDTH 382 0
DWIDTH 13 0
BBX 12 11 0 17
BITMAP
39E0
4730
C610
8610
8610
8610
8610
8610
8610
8E20
79C0
ENDCHAR
STARTCHAR 0023
ENCODING 35
SWIDTH 529 0
DWIDTH 18 0
BBX 19 26 -1 2
BITMAP
03C780
062C40
042C40
042840
0C68C0
087880
300060
200020
200020
300040
10F180
10A100
11A100
212100
216100
61E300
C00180
800080
800080
C00100
478600
C68400
848400
848400
8C8800
787800
ENDCHAR
STARTCHAR 0024
ENCODING 36
SWIDTH 470 0
DWIDTH 16 0
BBX 17 22 -1 4
BITMAP
00E000
011000
031000
3E1F00
600180
400080
400080
400100
60FE00
306000
183800
0C1C00
070E00
7F0300
C00100
800100
800100
800200
7C3C00
0C6000
044000
038000
ENDCHAR
STARTCHAR 0025
ENCODING 37
SWIDTH 529 0
DWIDTH 18 0
BBX 18 26 0 2
BITMAP
078780
18C8C0
105040
207040
206080
206180
204100
108200
0F8200
010400
010C00
020800
061000
041000
082000
186000
104000
30FC00
20C200
618100
430100
C30100
850100
858200
C88600
707800
ENDCHAR
STARTCHAR 0026
ENCODING 38
SWIDTH 470 0
DWIDTH 16 0
BBX 17 26 -1 2
BITMAP
01F000
061C00
080600
100300
200100
41E100
426180
443180
443100
423900
43DE00
607E00
203300
602100
406100
C3A100
862100
842100
842100
864300
838200
C00600
400400
200800
183000
07C000
ENDCHAR
STARTCHAR 0027
ENCODING 39
SWIDTH 264 0
DWIDTH 9 0
BBX 7 13 0 15
BITMAP
3C
46
42
82
82
82
82
82
82
82
86
C4
78
ENDCHAR
STARTCHAR 0028
ENCODING 40
SWIDTH 323 0
DWIDTH 11 0
BBX 13 31 -1 -3
BITMAP
00F0
0310
0618
0C18
0830
1060
10C0
2180
2100
4300
4200
4200
4200
8600
8400
8400
8400
8400
8400
8400
8400
4200
4200
4200
4300
6180
20C0
3040
1040
0C40
0380
ENDCHAR
STARTCHAR 0029
ENCODING 41
SWIDTH 411 0
DWIDTH 14 0
BBX 12 31 0 -3
BITMAP
0E00
1180
20C0
2040
3060
1C20
0430
0630
0210
0210
0210
0310
0310
0310
0310
0110
0110
0110
0310
0230
0220
0620
0460
0C40
08C0
3080
6180
8100
8200
8C00
7000
ENDCHAR
STARTCHAR 002A
ENCODING 42
SWIDTH 529 0
DWIDTH 18 0
BBX 16 16 1 7
BITMAP
01C0
0260
0420
0420
0420
7C3E
4001
8001
8001
8002
7C7C
0C40
0840
0840
0CC0
0700
ENDCHAR
STARTCHAR 002B
ENCODING 43
SWIDTH 529 0
DWIDTH 18 0
BBX 16 16 1 7
BITMAP
01C0
0260
0420
0420
0420
7C3E
4001
8001
8001
8002
7C7C
0C40
0840
0840
0CC0
0700
ENDCHAR
STARTCHAR 002C
ENCODING 44
SWIDTH 235 0
DWIDTH 8 0
BBX 6 11 0 -3
BITMAP
38
44
C4
84
84
84
84
84
84
88
70
ENDCHAR
STARTCHAR 002D
ENCODING 45
SWIDTH 529 0
DWIDTH 18 0
BBX 16 6 1 12
BITMAP
3FFE
4001
8001
8001
C002
7FFC
ENDCHAR
STARTCHAR 002E
ENCODING 46
SWIDTH 235 0
DWIDTH 8 0
BBX 6 6 1 2
BITMAP
38
4C
84
84
C8
70
ENDCHAR
STARTCHAR 002F
ENCODING 47
SWIDTH 529 0
DWIDTH 18 0
BBX 18 26 0 2
BITMAP
000780
0008C0
001040
001040
002080
002180
004100
008300
008200
010400
010C00
020800
061800
041000
082000
086000
104000
308000
208000
610000
430000
C20000
840000
840000
C80000
700000
ENDCHAR
STARTCHAR 0030
ENCODING 48
SWIDTH 470 0
DWIDTH 16 0
BBX 17 26 -1 2
BITMAP
01F000
061C00
080600
100300
200100
61E100
434180
448180
450180
460100
460100
840100
800100
802100
806100
806100
80E100
80A100
812100
814100
838200
800600
400C00
201800
186000
078000
ENDCHAR
STARTCHAR 0031
ENCODING 49
SWIDTH 352 0
DWIDTH 12 0
BBX 11 26 0 2
BITMAP
01C0
0660
0C20
1820
3020
6020
C020
8020
8460
8C60
7C60
0C60
0C40
0C40
0840
0840
0840
0840
0840
0840
0840
0840
0840
0840
0880
0700
ENDCHAR
STARTCHAR 0032
ENCODING 50
SWIDTH 529 0
DWIDTH 18 0
BBX 17 26 0 2
BITMAP
007800
008C00
010200
010100
018100
00E080
003080
001080
001080
002080
03C100
0E0300
180200
300C00
607800
43E000
C60000
C40000
840000
840000
87FE00
800100
800100
800100
800200
7FFC00
ENDCHAR
STARTCHAR 0033
ENCODING 51
SWIDTH 470 0
DWIDTH 16 0
BBX 17 26 -1 2
BITMAP
01F000
060C00
080200
100100
200100
61C080
432080
423080
463080
446180
3BC100
060300
040600
040600
060600
7BC300
8C6300
8C2300
8C2300
864300
838200
C00600
400C00
201800
183000
07C000
ENDCHAR
STARTCHAR 0034
ENCODING 52
SWIDTH 558 0
DWIDTH 19 0
BBX 17 26 1 2
BITMAP
0F0E00
111100
119180
219180
213180
212180
632100
432100
422100
422100
43E100
800100
800100
800100
800100
7FE300
006300
006300
006200
006200
004200
004200
004200
004200
006600
003800
ENDCHAR
STARTCHAR 0035
ENCODING 53
SWIDTH 500 0
DWIDTH 17 0
BBX 16 26 0 3
BITMAP
1FF0
300C
2004
2004
2008
27F0
6400
4400
4400
47C0
43F8
401C
4006
4002
3FC3
7863
CC21
8C21
8C21
8641
8382
4002
4004
2008
1830
07C0
ENDCHAR
STARTCHAR 0036
ENCODING 54
SWIDTH 500 0
DWIDTH 17 0
BBX 16 26 0 2
BITMAP
00E0
0110
0310
0210
0630
0420
0C20
0860
0840
10C0
10E0
3018
200C
2006
4002
41C1
C221
8421
8421
8621
C3C2
4002
6004
3008
1830
07C0
ENDCHAR
STARTCHAR 0037
ENCODING 55
SWIDTH 470 0
DWIDTH 16 0
BBX 16 26 0 2
BITMAP
3FFE
4003
C001
C001
C003
7FC2
0042
00C6
0084
0184
0184
0108
0308
0308
0210
0610
0610
0C20
0C20
0C60
0840
1840
1880
1080
1880
0F00
ENDCHAR
STARTCHAR 0038
ENCODING 56
SWIDTH 470 0
DWIDTH 16 0
BBX 17 26 -1 2
BITMAP
01F000
060C00
080200
100100
200100
40E080
433080
421080
421080
432180
41C100
600300
200600
200600
400600
C3C300
862300
842300
842300
864300
838200
800600
400C00
201800
183000
07C000
ENDCHAR
STARTCHAR 0039
ENCODING 57
SWIDTH 470 0
DWIDTH 16 0
BBX 16 26 0 2
BITMAP
03E0
0C38
100C
2006
4002
8383
8643
8463
8463
8442
8382
C004
4004
7008
3E08
0F08
0210
0610
0420
0420
0860
0840
18C0
1880
0F80
0F00
ENDCHAR
STARTCHAR 003A
ENCODING 58
SWIDTH 176 0
DWIDTH 6 0
BBX 7 16 -1 2
BITMAP
3C
66
42
46
38
00
00
00
00
00
78
CC
84
84
C8
70
ENDCHAR
STARTCHAR 003B
ENCODING 59
SWIDTH 235 0
DWIDTH 8 0
BBX 7 21 0 -3
BITMAP
1C
22
22
26
1C
00
00
00
00
00
38
44
C4
84
84
84
84
84
84
88
70
ENDCHAR
STARTCHAR 003C
ENCODING 60
SWIDTH 323 0
DWIDTH 11 0
BBX 12 16 -1 7
BITMAP
01E0
0320
0430
0830
1020
2040
4080
8300
8100
4080
6040
3020
1820
0C20
0660
01C0
ENDCHAR
STARTCHAR 003D
ENCODING 61
SWIDTH 500 0
DWIDTH 17 0
BBX 16 12 0 9
BITMAP
3FFE
2001
4001
4003
7FFF
3FFE
3FFE
4003
8001
8001
8002
7FFC
ENDCHAR
STARTCHAR 003E
ENCODING 62
SWIDTH 352 0
DWIDTH 12 0
BBX 11 16 0 7
BITMAP
3C00
6600
4300
4180
60C0
3060
1820
0C20
1820
3060
40C0
C180
8300
8600
8C00
7000
ENDCHAR
STARTCHAR 003F
ENCODING 63
SWIDTH 529 0
DWIDTH 18 0
BBX 17 26 0 2
BITMAP
01F000
060C00
080200
100100
200100
21E080
433080
431080
461080
463080
3FE100
0F8100
180200
300400
603800
43E000
860000
860000
8C0000
8C0000
780000
C80000
880000
880000
C80000
700000
ENDCHAR
STARTCHAR 0041
ENCODING 65
SWIDTH 529 0
DWIDTH 18 0
BBX 16 26 0 2
BITMAP
00E0
0110
0110
0218
0218
0208
0408
040C
040C
080C
080C
080C
1004
1044
10C6
20C6
2146
2146
4142
4242
4222
8223
8423
8423
C822
781C
ENDCHAR
STARTCHAR 0042
ENCODING 66
SWIDTH 529 0
DWIDTH 18 0
BBX 17 26 0 2
BITMAP
1FF000
300C00
200200
200100
300100
1FE080
003080
001080
001080
007080
1DE100
670100
420200
460200
470300
47C300
463100
441100
841100
842100
87C200
800200
800400
800800
803000
7FC000
ENDCHAR
STARTCHAR 0043
ENCODING 67
SWIDTH 470 0
DWIDTH 16 0
BBX 17 26 -1 2
BITMAP
01F000
060C00
080600
100300
200100
60E080
433080
421080
421080
421900
420E00
C40000
840000
840000
840000
841E00
843100
843100
846100
866100
838200
800200
400400
200800
183000
07C000
ENDCHAR
STARTCHAR 0044
ENCODING 68
SWIDTH 529 0
DWIDTH 18 0
BBX 17 26 0 3
BITMAP
1FF000
200C00
200200
200100
200180
23E080
423080
421080
421080
421080
421080
421180
421180
421180
441100
441100
441100
C41100
841100
842100
87C200
800200
800400
800800
803000
7FC000
ENDCHAR
STARTCHAR 0045
ENCODING 69
SWIDTH 470 0
DWIDTH 16 0
BBX 17 26 -1 2
BITMAP
01FF00
078380
180080
100080
200100
60FE00
430000
440000
440000
440000
47FE00
860300
840100
840100
874200
87FC00
840000
840000
840000
840000
83FC00
C00600
600200
300200
1FE400
07F800
ENDCHAR
STARTCHAR 0046
ENCODING 70
SWIDTH 441 0
DWIDTH 15 0
BBX 18 26 -2 2
BITMAP
00FF80
030040
040040
080040
100040
307F80
208000
210000
210000
210000
21FF00
630080
430080
430080
43D080
42FF00
420000
420000
420000
420000
420000
420000
C20000
840000
440000
380000
ENDCHAR
STARTCHAR 0047
ENCODING 71
SWIDTH 470 0
DWIDTH 16 0
BBX 17 26 -1 2
BITMAP
01F000
073C00
080600
100200
200300
61E100
432180
423180
461100
461B00
47FE00
C70100
860100
860100
860100
87E100
842100
842100
842300
864300
838200
800600
400400
201800
183000
07C000
ENDCHAR
STARTCHAR 0048
ENCODING 72
SWIDTH 558 0
DWIDTH 19 0
BBX 18 26 0 2
BITMAP
1E0700
330880
2308C0
2308C0
231880
231080
621080
421080
421080
421080
43F080
430080
420080
420080
420080
43F180
443180
C43100
843100
883100
882100
882100
882100
882100
C83300
701C00
ENDCHAR
STARTCHAR 0049
ENCODING 73
SWIDTH 264 0
DWIDTH 9 0
BBX 8 26 0 2
BITMAP
1E
33
23
23
23
23
63
42
42
42
42
42
42
42
42
42
46
C6
84
84
84
84
84
84
CC
70
ENDCHAR
STARTCHAR 004A
ENCODING 74
SWIDTH 529 0
DWIDTH 18 0
BBX 17 26 0 2
BITMAP
000700
000880
001080
001080
001080
001080
001080
001080
001080
001080
001100
001100
003100
002100
002100
382100
4C2100
8C2100
8C2100
864100
838200
C00600
400C00
201800
186000
078000
ENDCHAR
STARTCHAR 004B
ENCODING 75
SWIDTH 529 0
DWIDTH 18 0
BBX 18 26 0 2
BITMAP
1E0780
330CC0
210840
211040
211080
212080
612100
634300
634200
438400
438C00
438800
431000
431000
431800
439800
438800
C38C00
C4C400
84C600
844200
846300
846300
842300
CC3200
701C00
ENDCHAR
STARTCHAR 004C
ENCODING 76
SWIDTH 500 0
DWIDTH 17 0
BBX 16 26 0 2
BITMAP
1E00
3300
2300
2300
2300
2300
6200
4200
4200
4200
4200
4200
4200
4200
4600
4600
4400
C400
8400
8400
87FE
8001
8001
8001
8002
7FFC
ENDCHAR
STARTCHAR 004D
ENCODING 77
SWIDTH 647 0
DWIDTH 22 0
BBX 22 26 0 2
BITMAP
0C0070
3300C8
21810C
20C60C
206C08
203808
400008
400008
430308
438708
42CD08
427908
420108
420108
420318
420318
420318
C60310
840210
840210
840210
840210
840210
840210
CC0230
7801C0
ENDCHAR
STARTCHAR 004E
ENCODING 78
SWIDTH 617 0
DWIDTH 21 0
BBX 20 26 0 2
BITMAP
1E01E0
360330
230230
218230
208230
20C230
40C630
406620
406620
403420
401420
421C20
420C20
430C20
430420
428020
428060
C64060
846040
842040
843040
841040
841840
840840
CC0CC0
780700
ENDCHAR
STARTCHAR 004F
ENCODING 79
SWIDTH 470 0
DWIDTH 16 0
BBX 17 26 -1 2
BITMAP
01F000
061C00
080600
100300
200100
60C100
433180
421180
423180
423100
423100
843100
842100
842100
842100
842100
842100
842100
842100
864100
838200
800600
400C00
201800
186000
078000
ENDCHAR
STARTCHAR 0050
ENCODING 80
SWIDTH 529 0
DWIDTH 18 0
BBX 17 26 0 3
BITMAP
1FF000
300C00
200200
200100
200100
23E080
623080
421080
421080
423080
43E100
438100
420200
420400
421800
43E000
420000
C40000
840000
840000
840000
840000
840000
840000
CC0000
700000
ENDCHAR
STARTCHAR 0051
ENCODING 81
SWIDTH 470 0
DWIDTH 16 0
BBX 17 26 -1 2
BITMAP
01F000
061C00
080600
100300
200100
60C100
433180
421180
423180
423100
423100
843100
842100
842100
842100
842100
842100
842100
842100
864100
838200
800600
400200
200200
186600
079C00
ENDCHAR
STARTCHAR 0052
ENCODING 82
SWIDTH 529 0
DWIDTH 18 0
BBX 17 26 0 3
BITMAP
1FF000
300C00
200200
200100
200100
23E080
623080
421080
421080
423080
43E100
438300
420600
420C00
421800
430800
430800
C50C00
848400
848600
84C200
844200
844300
842300
CC2200
701C00
ENDCHAR
STARTCHAR 0053
ENCODING 83
SWIDTH 470 0
DWIDTH 16 0
BBX 17 26 -1 2
BITMAP
01F000
060C00
080600
100300
200100
40E080
413080
423080
421880
431900
41FE00
607800
200C00
180600
0F0200
7BC300
8C6100
8C2100
8C2100
864100
838200
C00200
400400
200800
183000
07C000
ENDCHAR
STARTCHAR 0054
ENCODING 84
SWIDTH 470 0
DWIDTH 16 0
BBX 16 26 0 2
BITMAP
3FFE
4001
8001
8001
C003
7C3E
0420
0420
0420
0C40
0C40
0C40
0840
0840
0840
0840
0840
0840
0840
0840
1880
1080
1080
1080
1980
0F00
ENDCHAR
STARTCHAR 0055
ENCODING 85
SWIDTH 529 0
DWIDTH 18 0
BBX 17 26 0 2
BITMAP
1C0700
220880
421080
421080
421080
421080
421080
421080
421080
421080
461180
461100
463100
842100
842100
842100
842100
842100
842100
864100
838200
C00600
400C00
201800
186000
078000
ENDCHAR
STARTCHAR 0056
ENCODING 86
SWIDTH 470 0
DWIDTH 16 0
BBX 16 26 0 2
BITMAP
381E
4C31
8431
8421
8463
4462
4442
42C6
42C4
4284
438C
2388
2308
2018
2010
2010
2030
1020
1020
1060
1040
1040
1080
1880
0980
0700
ENDCHAR
STARTCHAR 0057
ENCODING 87
SWIDTH 647 0
DWIDTH 22 0
BBX 21 26 0 2
BITMAP
1E0070
320088
230188
230188
230188
220188
620108
420108
420108
420308
420308
420308
460308
440308
44F318
458B18
470618
C60210
800010
806010
80E010
819010
830C10
860610
DC0320
7001C0
ENDCHAR
STARTCHAR 0058
ENCODING 88
SWIDTH 529 0
DWIDTH 18 0
BBX 18 26 0 2
BITMAP
0C0700
120C80
2118C0
211080
213180
10E100
10E300
104200
080600
080400
080800
041800
061000
061000
0C1800
0C0800
180800
108C00
318400
21C600
434200
C26300
866100
842100
883200
781C00
ENDCHAR
STARTCHAR 0059
ENCODING 89
SWIDTH 470 0
DWIDTH 16 0
BBX 16 26 0 2
BITMAP
380E
4413
C421
C263
4242
42C6
4184
218C
2008
3018
1030
1020
0860
0C40
0840
0840
0840
0840
0840
0880
1880
1080
1080
1080
1980
0F00
ENDCHAR
STARTCHAR 005A
ENCODING 90
SWIDTH 529 0
DWIDTH 18 0
BBX 18 26 0 2
BITMAP
1FFF00
300080
2000C0
200080
200080
1FE100
004300
00C200
018600
018400
030800
030800
061000
0C3000
0C2000
186000
184000
308000
208000
610000
C1FE00
C00100
800100
800100
C00200
7FFC00
ENDCHAR
STARTCHAR 005B
ENCODING 91
SWIDTH 323 0
DWIDTH 11 0
BBX 12 31 -1 -3
BITMAP
0FE0
3030
2010
2010
20F0
21E0
2100
2100
2200
6200
6200
6200
4200
4200
4200
4200
4200
4200
4200
4400
4400
4400
C400
8400
8400
8780
83C0
8040
8040
80C0
7F00
ENDCHAR
STARTCHAR 005C
ENCODING 92
SWIDTH 500 0
DWIDTH 17 0
BBX 14 26 1 2
BITMAP
3800
4800
8400
8400
8200
4200
4100
4100
2100
2080
1080
1040
1840
0820
0820
0420
0410
0210
0208
0208
0108
010C
0084
0084
00CC
0078
ENDCHAR
STARTCHAR 005D
ENCODING 93
SWIDTH 382 0
DWIDTH 13 0
BBX 12 31 0 -3
BITMAP
0FE0
3030
2010
2010
2010
1E10
0230
0230
0230
0630
0630
0620
0420
0420
0420
0420
0420
0420
0420
0C20
0C20
0860
0860
0840
0840
7840
F040
8040
8040
80C0
7F00
ENDCHAR
STARTCHAR 005E
ENCODING 94
SWIDTH 500 0
DWIDTH 17 0
BBX 16 11 0 17
BITMAP
01C0
0220
0410
1808
3004
6002
4183
8381
8641
8C23
701C
ENDCHAR
STARTCHAR 005F
ENCODING 95
SWIDTH 529 0
DWIDTH 18 0
BBX 16 6 1 2
BITMAP
3FFE
4001
8001
8001
C002
7FFC
ENDCHAR
STARTCHAR 0060
ENCODING 96
SWIDTH 382 0
DWIDTH 13 0
BBX 11 11 1 17
BITMAP
3800
4C00
8600
8200
8100
4080
2040
1020
0820
0460
0380
ENDCHAR
STARTCHAR 0061
ENCODING 97
SWIDTH 529 0
DWIDTH 18 0
BBX 16 26 0 2
BITMAP
00E0
0110
0110
0218
0218
0208
0408
040C
040C
080C
080C
080C
1004
1044
10C6
20C6
2146
2146
4142
4242
4222
8223
8423
8423
C822
781C
ENDCHAR
STARTCHAR 0062
ENCODING 98
SWIDTH 529 0
DWIDTH 18 0
BBX 17 26 0 2
BITMAP
1FF000
300C00
200200
200100
300100
1FE080
003080
001080
001080
007080
1DE100
670100
420200
460200
470300
47C300
463100
441100
841100
842100
87C200
800200
800400
800800
803000
7FC000
ENDCHAR
STARTCHAR 0063
ENCODING 99
SWIDTH 470 0
DWIDTH 16 0
BBX 17 26 -1 2
BITMAP
01F000
060C00
080600
100300
200100
60E080
433080
421080
421080
421900
420E00
C40000
840000
840000
840000
841E00
843100
843100
846100
866100
838200
800200
400400
200800
183000
07C000
ENDCHAR
STARTCHAR 0064
ENCODING 100
SWIDTH 529 0
DWIDTH 18 0
BBX 17 26 0 3
BITMAP
1FF000
200C00
200200
200100
200180
23E080
423080
421080
421080
421080
421080
421180
421180
421180
441100
441100
441100
C41100
841100
842100
87C200
800200
800400
800800
803000
7FC000
ENDCHAR
STARTCHAR 0065
ENCODING 101
SWIDTH 470 0
DWIDTH 16 0
BBX 17 26 -1 2
BITMAP
01FF00
078380
180080
100080
200100
60FE00
430000
440000
440000
440000
47FE00
860300
840100
840100
874200
87FC00
840000
840000
840000
840000
83FC00
C00600
600200
300200
1FE400
07F800
ENDCHAR
STARTCHAR 0066
ENCODING 102
SWIDTH 441 0
DWIDTH 15 0
BBX 18 26 -2 2
BITMAP
00FF80
030040
040040
080040
100040
307F80
208000
210000
210000
210000
21FF00
630080
430080
430080
43D080
42FF00
420000
420000
420000
420000
420000
420000
C20000
840000
440000
380000
ENDCHAR
STARTCHAR 0067
ENCODING 103
SWIDTH 470 0
DWIDTH 16 0
BBX 17 26 -1 2
BITMAP
01F000
073C00
080600
100200
200300
61E100
432180
423180
461100
461B00
47FE00
C70100
860100
860100
860100
87E100
842100
842100
842300
864300
838200
800600
400400
201800
183000
07C000
ENDCHAR
STARTCHAR 0068
ENCODING 104
SWIDTH 558 0
DWIDTH 19 0
BBX 18 26 0 2
BITMAP
1E0700
330880
2308C0
2308C0
231880
231080
621080
421080
421080
421080
43F080
430080
420080
420080
420080
43F180
443180
C43100
843100
883100
882100
882100
882100
882100
C83300
701C00
ENDCHAR
STARTCHAR 0069
ENCODING 105
SWIDTH 264 0
DWIDTH 9 0
BBX 8 26 0 2
BITMAP
1E
33
23
23
23
23
63
42
42
42
42
42
42
42
42
42
46
C6
84
84
84
84
84
84
CC
70
ENDCHAR
STARTCHAR 006A
ENCODING 106
SWIDTH 529 0
DWIDTH 18 0
BBX 17 26 0 2
BITMAP
000700
000880
001080
001080
001080
001080
001080
001080
001080
001080
001100
001100
003100
002100
002100
382100
4C2100
8C2100
8C2100
864100
838200
C00600
400C00
201800
186000
078000
ENDCHAR
STARTCHAR 006B
ENCODING 107
SWIDTH 529 0
DWIDTH 18 0
BBX 18 26 0 2
BITMAP
1E0780
330CC0
210840
211040
211080
212080
612100
634300
634200
438400
438C00
438800
431000
431000
431800
439800
438800
C38C00
C4C400
84C600
844200
846300
846300
842300
CC3200
701C00
ENDCHAR
STARTCHAR 006C
ENCODING 108
SWIDTH 500 0
DWIDTH 17 0
BBX 16 26 0 2
BITMAP
1E00
3300
2300
2300
2300
2300
6200
4200
4200
4200
4200
4200
4200
4200
4600
4600
4400
C400
8400
8400
87FE
8001
8001
8001
8002
7FFC
ENDCHAR
STARTCHAR 006D
ENCODING 109
SWIDTH 647 0
DWIDTH 22 0
BBX 22 26 0 2
BITMAP
0C0070
3300C8
21810C
20C60C
206C08
203808
400008
400008
430308
438708
42CD08
427908
420108
420108
420318
420318
420318
C60310
840210
840210
840210
840210
840210
840210
CC0230
7801C0
ENDCHAR
STARTCHAR 006E
ENCODING 110
SWIDTH 617 0
DWIDTH 21 0
BBX 20 26 0 2
BITMAP
1E01E0
360330
230230
218230
208230
20C230
40C630
406620
406620
403420
401420
421C20
420C20
430C20
430420
428020
428060
C64060
846040
842040
843040
841040
841840
840840
CC0CC0
780700
ENDCHAR
STARTCHAR 006F
ENCODING 111
SWIDTH 470 0
DWIDTH 16 0
BBX 17 26 -1 2
BITMAP
01F000
061C00
080600
100300
200100
60C100
433180
421180
423180
423100
423100
843100
842100
842100
842100
842100
842100
842100
842100
864100
838200
800600
400C00
201800
186000
078000
ENDCHAR
STARTCHAR 0070
ENCODING 112
SWIDTH 529 0
DWIDTH 18 0
BBX 17 26 0 3
BITMAP
1FF000
300C00
200200
200100
200100
23E080
623080
421080
421080
423080
43E100
438100
420200
420400
421800
43E000
420000
C40000
840000
840000
840000
840000
840000
840000
CC0000
700000
ENDCHAR
STARTCHAR 0071
ENCODING 113
SWIDTH 470 0
DWIDTH 16 0
BBX 17 26 -1 2
BITMAP
01F000
061C00
080600
100300
200100
60C100
433180
421180
423180
423100
423100
843100
842100
842100
842100
842100
842100
842100
842100
864100
838200
800600
400200
200200
186600
079C00
ENDCHAR
STARTCHAR 0072
ENCODING 114
SWIDTH 529 0
DWIDTH 18 0
BBX 17 26 0 3
BITMAP
1FF000
300C00
200200
200100
200100
23E080
623080
421080
421080
423080
43E100
438300
420600
420C00
421800
430800
430800
C50C00
848400
848600
84C200
844200
844300
842300
CC2200
701C00
ENDCHAR
STARTCHAR 0073
ENCODING 115
SWIDTH 470 0
DWIDTH 16 0
BBX 17 26 -1 2
BITMAP
01F000
060C00
080600
100300
200100
40E080
413080
423080
421880
431900
41FE00
607800
200C00
180600
0F0200
7BC300
8C6100
8C2100
8C2100
864100
838200
C00200
400400
200800
183000
07C000
ENDCHAR
STARTCHAR 0074
ENCODING 116
SWIDTH 470 0
DWIDTH 16 0
BBX 16 26 0 2
BITMAP
3FFE
4001
8001
8001
C003
7C3E
0420
0420
0420
0C40
0C40
0C40
0840
0840
0840
0840
0840
0840
0840
0840
1880
1080
1080
1080
1980
0F00
ENDCHAR
STARTCHAR 0075
ENCODING 117
SWIDTH 529 0
DWIDTH 18 0
BBX 17 26 0 2
BITMAP
1C0700
220880
421080
421080
421080
421080
421080
421080
421080
421080
461180
461100
463100
842100
842100
842100
842100
842100
842100
864100
838200
C00600
400C00
201800
186000
078000
ENDCHAR
STARTCHAR 0076
ENCODING 118
SWIDTH 470 0
DWIDTH 16 0
BBX 16 26 0 2
BITMAP
381E
4C31
8431
8421
8463
4462
4442
42C6
42C4
4284
438C
2388
2308
2018
2010
2010
2030
2020
1020
1060
1040
1040
1080
1880
0980
0700
ENDCHAR
STARTCHAR 0077
ENCODING 119
SWIDTH 647 0
DWIDTH 22 0
BBX 21 26 0 2
BITMAP
1E0070
320088
230188
230188
230188
220188
620108
420108
420108
420308
420308
420308
460308
440308
44F318
458B18
470618
C60210
800010
806010
80E010
819010
830C10
860610
DC0320
7001C0
ENDCHAR
STARTCHAR 0078
ENCODING 120
SWIDTH 529 0
DWIDTH 18 0
BBX 18 26 0 2
BITMAP
0C0700
120C80
2118C0
211080
213180
10E100
10E300
104200
080600
080400
080800
041800
061000
061000
0C1800
0C0800
180800
108C00
318400
21C600
434200
C26300
866100
842100
883200
781C00
ENDCHAR
STARTCHAR 0079
ENCODING 121
SWIDTH 470 0
DWIDTH 16 0
BBX 16 26 0 2
BITMAP
380E
4413
C421
C263
4242
42C6
4184
218C
2008
3018
1030
1020
0860
0C40
0840
0840
0840
0840
0840
0880
1880
1080
1080
1080
1980
0F00
ENDCHAR
STARTCHAR 007A
ENCODING 122
SWIDTH 529 0
DWIDTH 18 0
BBX 18 26 0 2
BITMAP
1FFF00
300080
2000C0
200080
200080
1FE100
004300
00C200
018600
018400
030800
030800
061000
0C3000
0C2000
186000
184000
308000
208000
610000
C1FE00
C00100
800100
800100
C00200
7FFC00
ENDCHAR
STARTCHAR 007B
ENCODING 123
SWIDTH 411 0
DWIDTH 14 0
BBX 15 30 -1 -2
BITMAP
003C
00C2
0182
0302
0206
041C
0420
0440
0440
0C40
0840
0840
1880
6180
C300
8600
C300
7180
1880
1880
1880
1080
1080
10C0
1070
0838
0C08
0608
0308
00F0
ENDCHAR
STARTCHAR 007C
ENCODING 124
SWIDTH 264 0
DWIDTH 9 0
BBX 8 26 0 2
BITMAP
1E
33
23
23
23
23
63
42
42
42
42
42
42
42
42
42
46
C6
84
84
84
84
84
84
CC
70
ENDCHAR
STARTCHAR 007D
ENCODING 125
SWIDTH 500 0
DWIDTH 17 0
BBX 15 30 0 -2
BITMAP
0F00
11C0
2060
2020
3810
1E10
0318
0118
0110
0210
0210
0210
0318
018E
00C2
0062
0186
011C
0230
0220
0620
0620
0420
0420
3820
E040
8080
8100
8600
7800
ENDCHAR
STARTCHAR 007E
ENCODING 126
SWIDTH 500 0
DWIDTH 17 0
BBX 15 10 1 18
BITMAP
1F00
3180
40C0
C85C
9C56
9466
7426
040C
0318
01F0
ENDCHAR
STARTCHAR 00A1
ENCODING 161
SWIDTH 264 0
DWIDTH 9 0
BBX 8 26 0 2
BITMAP
0E
13
21
21
13
0E
1C
26
42
42
42
42
42
42
42
46
46
C6
84
84
84
84
84
84
CC
70
ENDCHAR
STARTCHAR 00C0
ENCODING 192
SWIDTH 500 0
DWIDTH 17 0
BBX 16 37 -1 2
BITMAP
01C0
0260
0430
0418
060C
0306
0183
0081
0041
0033
001E
00E0
0190
0110
0308
0308
0208
060C
060C
0404
0C04
0C04
0804
1884
1186
1182
3182
2142
2342
6342
4242
4641
C661
C421
8C21
CC23
781C
ENDCHAR
STARTCHAR 00C1
ENCODING 193
SWIDTH 500 0
DWIDTH 17 0
BBX 16 37 -1 2
BITMAP
000E
0013
0021
0041
0081
0102
0204
0418
0430
0460
0380
00E0
0190
0110
0318
0208
0208
0608
040C
040C
0C0C
080C
0804
1884
10C4
10C4
31C6
2146
2142
6262
4262
4262
C663
C423
8423
C832
781C
ENDCHAR
STARTCHAR 00C2
ENCODING 194
SWIDTH 500 0
DWIDTH 17 0
BBX 18 36 -1 2
BITMAP
007000
008800
010400
060200
0C0100
180080
306040
20B840
211C40
1E0780
00E000
019000
011000
031800
020800
020800
060800
040C00
040C00
0C0C00
0C0C00
080400
188400
188400
118400
31C600
314600
234200
634200
624200
464200
C62300
C42300
8C2300
CC2200
781C00
ENDCHAR
STARTCHAR 00C3
ENCODING 195
SWIDTH 500 0
DWIDTH 17 0
BBX 18 35 -1 2
BITMAP
01E000
023000
041800
088980
09CA40
094E40
074440
004080
003100
00FE00
011000
010800
020800
020800
020800
040800
040800
040400
080400
080400
080400
108400
118400
118400
218200
234200
234200
434200
424200
464200
864100
842100
8C2100
CC2200
781C00
ENDCHAR
STARTCHAR 00C4
ENCODING 196
SWIDTH 500 0
DWIDTH 17 0
BBX 17 31 -1 2
BITMAP
070700
0C9980
089180
0C9180
070F00
00E000
011000
011000
021800
021800
020800
040800
040C00
040C00
080C00
080C00
080C00
100400
104400
10C600
20C600
214600
214600
414200
424200
422200
822300
842300
842300
C82200
781C00
ENDCHAR
STARTCHAR 00C5
ENCODING 197
SWIDTH 500 0
DWIDTH 17 0
BBX 16 34 -1 2
BITMAP
0078
0184
0102
0232
0252
0272
0204
0108
00F0
0190
0118
0208
0208
0208
0408
0408
0404
0804
0804
0804
1004
1084
10C4
30C2
2142
2142
6142
4242
4262
C221
C421
8421
C832
781C
ENDCHAR
STARTCHAR 00C6
ENCODING 198
SWIDTH 823 0
DWIDTH 28 0
BBX 27 26 0 2
BITMAP
0007FFC0
000C0060
00180020
00100020
00200040
0020FF80
00410000
00C10000
00810000
01010000
0100FF80
020080C0
04110040
04310040
0831E0C0
08617F80
10E10000
10A10000
21210000
41218000
4220FF00
46100080
841800C0
CC0C0080
F807FD80
7001FF00
ENDCHAR
STARTCHAR 00C8
ENCODING 200
SWIDTH 529 0
DWIDTH 18 0
BBX 17 37 0 2
BITMAP
018000
026000
062000
041000
040800
020400
010200
008200
004200
002600
001C00
03FF00
060180
180080
100080
200100
60FE00
430000
440000
440000
440000
43FE00
420300
440100
840100
878300
85FE00
840000
840000
840000
860000
C3FC00
400200
600200
300200
1FFE00
07F800
ENDCHAR
STARTCHAR 00C9
ENCODING 201
SWIDTH 529 0
DWIDTH 18 0
BBX 17 37 0 2
BITMAP
000E00
001F00
003100
004100
008300
030600
060C00
041800
043000
046000
07C000
01FF00
060180
080080
100080
200100
20FE00
430000
440000
440000
440000
43FE00
420300
440100
840100
878300
85FE00
840000
840000
840000
860000
C3FC00
400200
600200
300200
1FFE00
07F800
ENDCHAR
STARTCHAR 00CA
ENCODING 202
SWIDTH 529 0
DWIDTH 18 0
BBX 18 36 0 2
BITMAP
007000
018800
030400
060200
080100
100080
206040
209040
2118C0
1E0F80
03FF00
0E0180
180080
100080
200100
60FE00
430000
440000
440000
440000
43FE00
420300
840100
840100
878300
85FE00
840000
840000
840000
860000
C3FC00
400200
600200
300200
1FFE00
07F800
ENDCHAR
STARTCHAR 00CB
ENCODING 203
SWIDTH 470 0
DWIDTH 16 0
BBX 17 31 -1 2
BITMAP
070E00
091200
10A300
09A300
0F1E00
07FE00
0E0100
180080
300180
600100
41FE00
420000
C40000
C40000
840000
87FC00
840200
840100
840200
840200
87FC00
840000
840000
840000
840000
83FC00
C00400
400200
700600
3FFC00
0FF800
ENDCHAR
STARTCHAR 00CC
ENCODING 204
SWIDTH 235 0
DWIDTH 8 0
BBX 11 37 -3 2
BITMAP
3800
4C00
C400
8200
C100
4080
2040
1020
0820
0660
03C0
0780
0CC0
0840
0840
0840
0840
0840
18C0
1880
1080
1080
1080
1080
1080
1080
1080
1080
1080
3100
2100
2100
2100
2100
2100
3300
1C00
ENDCHAR
STARTCHAR 00CD
ENCODING 205
SWIDTH 264 0
DWIDTH 9 0
BBX 14 37 -2 2
BITMAP
0038
00CC
0184
0304
060C
0C18
1830
2060
21C0
2380
1E00
0C00
3300
2100
2100
2100
2100
2100
6300
4200
4200
4200
4200
4200
4200
4200
4200
4200
C200
8400
8400
8400
8400
8400
8400
C800
7000
ENDCHAR
STARTCHAR 00CE
ENCODING 206
SWIDTH 323 0
DWIDTH 11 0
BBX 16 36 -3 2
BITMAP
01C0
0620
0C10
1808
3004
4002
C181
8241
8423
781E
0380
0440
0440
0440
0440
0C40
0840
0840
0840
0840
0840
0840
0840
08C0
08C0
08C0
0880
1880
1080
1080
1080
1080
1080
1080
1980
0E00
ENDCHAR
STARTCHAR 00CF
ENCODING 207
SWIDTH 235 0
DWIDTH 8 0
BBX 13 31 -3 2
BITMAP
3870
4498
C508
CD98
78F0
0700
0980
1080
1080
1080
1180
1180
1180
1180
3100
3100
2100
2100
2100
2100
2100
2100
2100
2100
2100
2100
6300
4200
4200
2200
1C00
ENDCHAR
STARTCHAR 00D1
ENCODING 209
SWIDTH 617 0
DWIDTH 21 0
BBX 20 26 0 2
BITMAP
1E01E0
360330
230230
218230
208230
20C230
40C630
406620
406620
403420
401420
421C20
420C20
430C20
430420
428020
428060
C64060
846040
842040
843040
841040
841840
840840
CC0CC0
780700
ENDCHAR
STARTCHAR 00D2
ENCODING 210
SWIDTH 529 0
DWIDTH 18 0
BBX 17 37 0 2
BITMAP
018000
026000
062000
041000
040800
020400
010200
008100
004100
003300
001E00
01F000
060C00
080600
100300
200100
20E180
413180
421180
421180
421180
423180
423180
423100
843100
842100
842100
842100
842100
842100
864100
838200
C00200
400400
200800
183000
07C000
ENDCHAR
STARTCHAR 00D3
ENCODING 211
SWIDTH 529 0
DWIDTH 18 0
BBX 17 37 0 2
BITMAP
000E00
001300
002100
004100
008300
030600
060C00
041800
043000
046000
07C000
01F000
060C00
080600
100300
200100
20E180
413180
421180
421180
421180
423180
423180
423100
843100
842100
842100
842100
842100
842100
864100
838200
C00200
400400
200800
183000
07C000
ENDCHAR
STARTCHAR 00D4
ENCODING 212
SWIDTH 529 0
DWIDTH 18 0
BBX 18 36 0 2
BITMAP
007000
018800
030400
060200
080100
100080
206040
209040
2118C0
1E0780
01F000
060C00
080600
100300
200100
60E180
413180
421180
421180
421180
423180
423100
C23100
843100
842100
842100
842100
842100
842100
864100
838200
C00600
400C00
201800
186000
078000
ENDCHAR
STARTCHAR 00D5
ENCODING 213
SWIDTH 470 0
DWIDTH 16 0
BBX 17 26 -1 2
BITMAP
01F000
061C00
080600
100300
200100
60C100
433180
421180
423180
423100
423100
843100
842100
842100
842100
842100
842100
842100
842100
864100
838200
800600
400C00
201800
186000
078000
ENDCHAR
STARTCHAR 00D6
ENCODING 214
SWIDTH 500 0
DWIDTH 17 0
BBX 17 31 0 2
BITMAP
070E00
089300
08A100
089300
079E00
03F000
0E0C00
180600
300300
200100
60E180
413180
421180
421180
421180
423180
423180
C23100
843100
842100
842100
842100
842100
842100
864100
838200
C00600
400C00
201800
186000
078000
ENDCHAR
STARTCHAR 00D8
ENCODING 216
SWIDTH 529 0
DWIDTH 18 0
BBX 18 26 0 2
BITMAP
01F780
060CC0
080040
1000C0
200080
20E180
414080
42C080
428080
430080
430080
420180
401180
C03180
803100
807100
807100
80F100
80B100
816100
C1C200
400600
800400
801800
8E6000
73C000
ENDCHAR
STARTCHAR 00D9
ENCODING 217
SWIDTH 558 0
DWIDTH 19 0
BBX 17 37 0 2
BITMAP
018000
026000
062000
041000
040800
020400
010200
008100
004100
003300
001E00
1C0700
220880
421880
421880
421880
421080
421080
421080
421080
421080
463180
463100
463100
843100
843100
843100
843100
842100
842100
866100
83C200
C00200
400400
200800
183000
07C000
ENDCHAR
STARTCHAR 00DA
ENCODING 218
SWIDTH 558 0
DWIDTH 19 0
BBX 17 37 0 2
BITMAP
000E00
001300
002100
004100
008300
030600
060C00
041800
043000
046000
038000
1C0700
220880
421880
421880
421880
421080
421080
421080
421080
421080
463180
463100
463100
843100
843100
843100
843100
842100
842100
866100
83C200
C00200
400400
200800
183000
07C000
ENDCHAR
STARTCHAR 00DB
ENCODING 219
SWIDTH 558 0
DWIDTH 19 0
BBX 18 36 0 2
BITMAP
007000
018800
030400
060200
080100
100180
306080
2090C0
211880
3E0F80
240900
421080
421080
421080
421080
421080
421080
421080
421080
463100
463100
443100
842100
842100
842100
842100
842100
842100
842100
864200
838200
C00400
400C00
201800
186000
078000
ENDCHAR
STARTCHAR 00DC
ENCODING 220
SWIDTH 529 0
DWIDTH 18 0
BBX 17 31 0 2
BITMAP
070E00
089300
08A100
089300
0F9F00
0F0E00
3E0F80
621880
421080
421080
421080
421080
421080
421080
421080
441080
441100
443100
C42100
842100
842100
842100
842100
842100
864100
838200
800600
400400
201800
186000
078000
ENDCHAR
STARTCHAR 00E0
ENCODING 224
SWIDTH 500 0
DWIDTH 17 0
BBX 16 37 -1 2
BITMAP
01C0
0260
0430
0418
060C
0306
0183
0081
0041
0033
001E
00E0
0190
0110
0308
0308
0208
060C
060C
0404
0C04
0C04
0804
1884
1186
1182
3182
2142
2342
6342
4242
4641
C661
C421
8C21
CC23
781C
ENDCHAR
STARTCHAR 00E1
ENCODING 225
SWIDTH 500 0
DWIDTH 17 0
BBX 16 37 -1 2
BITMAP
000E
0013
0021
0041
0081
0102
0204
0418
0430
0460
0380
00E0
0190
0110
0318
0208
0208
0608
040C
040C
0C0C
080C
0804
1884
10C4
10C4
31C6
2146
2142
6262
4262
4262
C663
C423
8423
C832
781C
ENDCHAR
STARTCHAR 00E2
ENCODING 226
SWIDTH 500 0
DWIDTH 17 0
BBX 18 36 -1 2
BITMAP
007000
008800
010400
060200
0C0100
180080
306040
20B840
211C40
1E0780
00E000
019000
011000
031800
020800
020800
060800
040C00
040C00
0C0C00
0C0C00
080400
188400
188400
118400
31C600
314600
234200
634200
624200
464200
C62300
C42300
8C2300
CC2200
781C00
ENDCHAR
STARTCHAR 00E3
ENCODING 227
SWIDTH 500 0
DWIDTH 17 0
BBX 18 35 -1 2
BITMAP
01E000
023000
041800
088980
09CA40
094E40
074440
004080
003100
00FE00
011000
010800
020800
020800
020800
040800
040800
040400
080400
080400
080400
108400
118400
118400
218200
234200
234200
434200
424200
464200
864100
842100
8C2100
CC2200
781C00
ENDCHAR
STARTCHAR 00E4
ENCODING 228
SWIDTH 500 0
DWIDTH 17 0
BBX 17 31 -1 2
BITMAP
070700
0C9980
089180
0C9180
070F00
00E000
011000
011000
021800
021800
020800
040800
040C00
040C00
080C00
080C00
080C00
100400
104400
10C600
20C600
214600
214600
414200
424200
422200
822300
842300
842300
C82200
781C00
ENDCHAR
STARTCHAR 00E5
ENCODING 229
SWIDTH 500 0
DWIDTH 17 0
BBX 16 34 -1 2
BITMAP
0078
0184
0102
0232
0252
0272
0204
0108
00F0
0190
0118
0208
0208
0208
0408
0408
0404
0804
0804
0804
1004
1084
10C4
30C2
2142
2142
6142
4242
4262
C221
C421
8421
C832
781C
ENDCHAR
STARTCHAR 00E6
ENCODING 230
SWIDTH 823 0
DWIDTH 28 0
BBX 27 26 0 2
BITMAP
0007FFC0
000C0060
00180020
00100020
00200040
0020FF80
00410000
00C10000
00810000
01010000
0100FF80
020080C0
04110040
04310040
0831E0C0
08617F80
10E10000
10A10000
21210000
41218000
4220FF00
46100080
841800C0
CC0C0080
F807FD80
7001FF00
ENDCHAR
STARTCHAR 00E8
ENCODING 232
SWIDTH 529 0
DWIDTH 18 0
BBX 17 37 0 2
BITMAP
018000
026000
062000
041000
040800
020400
010200
008200
004200
002600
001C00
03FF00
060180
180080
100080
200100
60FE00
430000
440000
440000
440000
43FE00
420300
440100
840100
878300
85FE00
840000
840000
840000
860000
C3FC00
400200
600200
300200
1FFE00
07F800
ENDCHAR
STARTCHAR 00E9
ENCODING 233
SWIDTH 529 0
DWIDTH 18 0
BBX 17 37 0 2
BITMAP
000E00
001F00
003100
004100
008300
030600
060C00
041800
043000
046000
07C000
01FF00
060180
080080
100080
200100
20FE00
430000
440000
440000
440000
43FE00
420300
440100
840100
878300
85FE00
840000
840000
840000
860000
C3FC00
400200
600200
300200
1FFE00
07F800
ENDCHAR
STARTCHAR 00EA
ENCODING 234
SWIDTH 529 0
DWIDTH 18 0
BBX 18 36 0 2
BITMAP
007000
018800
030400
060200
080100
100080
206040
209040
2118C0
1E0F80
03FF00
0E0180
180080
100080
200100
60FE00
430000
440000
440000
440000
43FE00
420300
840100
840100
878300
85FE00
840000
840000
840000
860000
C3FC00
400200
600200
300200
1FFE00
07F800
ENDCHAR
STARTCHAR 00EB
ENCODING 235
SWIDTH 470 0
DWIDTH 16 0
BBX 17 31 -1 2
BITMAP
070E00
091200
10A300
09A300
0F1E00
07FE00
0E0100
180080
300180
600100
41FE00
420000
C40000
C40000
840000
87FC00
840200
840100
840200
840200
87FC00
840000
840000
840000
840000
83FC00
C00400
400200
700600
3FFC00
0FF800
ENDCHAR
STARTCHAR 00EC
ENCODING 236
SWIDTH 235 0
DWIDTH 8 0
BBX 11 37 -3 2
BITMAP
3800
4C00
C400
8200
C100
4080
2040
1020
0820
0660
03C0
0780
0CC0
0840
0840
0840
0840
0840
18C0
1880
1080
1080
1080
1080
1080
1080
1080
1080
1080
3100
2100
2100
2100
2100
2100
3300
1C00
ENDCHAR
STARTCHAR 00ED
ENCODING 237
SWIDTH 264 0
DWIDTH 9 0
BBX 14 37 -2 2
BITMAP
0038
00CC
0184
0304
060C
0C18
1830
2060
21C0
2380
1E00
0C00
3300
2100
2100
2100
2100
2100
6300
4200
4200
4200
4200
4200
4200
4200
4200
4200
C200
8400
8400
8400
8400
8400
8400
C800
7000
ENDCHAR
STARTCHAR 00EE
ENCODING 238
SWIDTH 323 0
DWIDTH 11 0
BBX 16 36 -3 2
BITMAP
01C0
0620
0C10
1808
3004
4002
C181
8241
8423
781E
0380
0440
0440
0440
0440
0C40
0840
0840
0840
0840
0840
0840
0840
08C0
08C0
08C0
0880
1880
1080
1080
1080
1080
1080
1080
1980
0E00
ENDCHAR
STARTCHAR 00EF
ENCODING 239
SWIDTH 235 0
DWIDTH 8 0
BBX 13 31 -3 2
BITMAP
3870
4498
C508
CD98
78F0
0700
0980
1080
1080
1080
1180
1180
1180
1180
3100
3100
2100
2100
2100
2100
2100
2100
2100
2100
2100
2100
6300
4200
4200
2200
1C00
ENDCHAR
STARTCHAR 00F1
ENCODING 241
SWIDTH 617 0
DWIDTH 21 0
BBX 20 26 0 2
BITMAP
1E01E0
360330
230230
218230
208230
20C230
40C630
406620
406620
403420
401420
421C20
420C20
430C20
430420
428020
428060
C64060
846040
842040
843040
841040
841840
840840
CC0CC0
780700
ENDCHAR
STARTCHAR 00F2
ENCODING 242
SWIDTH 529 0
DWIDTH 18 0
BBX 17 37 0 2
BITMAP
018000
026000
062000
041000
040800
020400
010200
008100
004100
003300
001E00
01F000
060C00
080600
100300
200100
20E180
413180
421180
421180
421180
423180
423180
423100
843100
842100
842100
842100
842100
842100
864100
838200
C00200
400400
200800
183000
07C000
ENDCHAR
STARTCHAR 00F3
ENCODING 243
SWIDTH 529 0
DWIDTH 18 0
BBX 17 37 0 2
BITMAP
000E00
001300
002100
004100
008300
030600
060C00
041800
043000
046000
07C000
01F000
060C00
080600
100300
200100
20E180
413180
421180
421180
421180
423180
423180
423100
843100
842100
842100
842100
842100
842100
864100
838200
C00200
400400
200800
183000
07C000
ENDCHAR
STARTCHAR 00F4
ENCODING 244
SWIDTH 529 0
DWIDTH 18 0
BBX 18 36 0 2
BITMAP
007000
018800
030400
060200
080100
100080
206040
209040
2118C0
1E0780
01F000
060C00
080600
100300
200100
60E180
413180
421180
421180
421180
423180
423100
C23100
843100
842100
842100
842100
842100
842100
864100
838200
C00600
400C00
201800
186000
078000
ENDCHAR
STARTCHAR 00F5
ENCODING 245
SWIDTH 470 0
DWIDTH 16 0
BBX 17 26 -1 2
BITMAP
01F000
061C00
080600
100300
200100
60C100
433180
421180
423180
423100
423100
843100
842100
842100
842100
842100
842100
842100
842100
864100
838200
800600
400C00
201800
186000
078000
ENDCHAR
STARTCHAR 00F6
ENCODING 246
SWIDTH 500 0
DWIDTH 17 0
BBX 17 31 0 2
BITMAP
070E00
089300
08A100
089300
079E00
03F000
0E0C00
180600
300300
200100
60E180
413180
421180
421180
421180
423180
423180
C23100
843100
842100
842100
842100
842100
842100
864100
838200
C00600
400C00
201800
186000
078000
ENDCHAR
STARTCHAR 00F8
ENCODING 248
SWIDTH 529 0
DWIDTH 18 0
BBX 18 26 0 2
BITMAP
01F780
060CC0
080040
1000C0
200080
20E180
414080
42C080
428080
430080
430080
420180
401180
C03180
803100
807100
807100
80F100
80B100
816100
C1C200
400600
800400
801800
8E6000
73C000
ENDCHAR
STARTCHAR 00F9
ENCODING 249
SWIDTH 558 0
DWIDTH 19 0
BBX 17 37 0 2
BITMAP
018000
026000
062000
041000
040800
020400
010200
008100
004100
003300
001E00
1C0700
220880
421880
421880
421880
421080
421080
421080
421080
421080
463180
463100
463100
843100
843100
843100
843100
842100
842100
866100
83C200
C00200
400400
200800
183000
07C000
ENDCHAR
STARTCHAR 00FA
ENCODING 250
SWIDTH 558 0
DWIDTH 19 0
BBX 17 37 0 2
BITMAP
000E00
001300
002100
004100
008300
030600
060C00
041800
043000
046000
038000
1C0700
220880
421880
421880
421880
421080
421080
421080
421080
421080
463180
463100
463100
843100
843100
843100
843100
842100
842100
866100
83C200
C00200
400400
200800
183000
07C000
ENDCHAR
STARTCHAR 00FB
ENCODING 251
SWIDTH 558 0
DWIDTH 19 0
BBX 18 36 0 2
BITMAP
007000
018800
030400
060200
080100
100180
306080
2090C0
211880
3E0F80
240900
421080
421080
421080
421080
421080
421080
421080
421080
463100
463100
443100
842100
842100
842100
842100
842100
842100
842100
864200
838200
C00400
400C00
201800
186000
078000
ENDCHAR
STARTCHAR 00FC
ENCODING 252
SWIDTH 529 0
DWIDTH 18 0
BBX 17 31 0 2
BITMAP
070E00
089300
08A100
089300
0F9F00
0F0E00
3E0F80
621880
421080
421080
421080
421080
421080
421080
421080
441080
441100
443100
C42100
842100
842100
842100
842100
842100
864100
838200
800600
400400
201800
186000
078000
ENDCHAR
STARTCHAR 00FD
ENCODING 253
SWIDTH 470 0
DWIDTH 16 0
BBX 16 37 0 2
BITMAP
0038
0064
00C2
0102
0204
0408
0810
1060
10C0
1180
0E00
701C
C822
8863
8442
C486
C284
430C
6308
6018
2010
3020
1060
1840
0840
08C0
1880
1880
1880
1080
1080
1080
1080
1080
1080
1100
0E00
ENDCHAR
STARTCHAR 00FF
ENCODING 255
SWIDTH 470 0
DWIDTH 16 0
BBX 16 31 0 2
BITMAP
1C1C
3226
3246
3246
3E3C
3C18
7C3E
C433
8461
C2C1
4282
4104
4104
2008
2018
1010
1020
0820
0840
0840
0840
0840
1880
1880
1080
1080
1080
1080
1080
1100
0E00
ENDCHAR
STARTCHAR 014F
ENCODING 335
SWIDTH 1000 0
DWIDTH 34 0
BBX 0 0 0 0
BITMAP
ENDCHAR
STARTCHAR 2010
ENCODING 8208
SWIDTH 529 0
DWIDTH 18 0
BBX 16 6 1 12
BITMAP
3FFE
4001
8001
8001
C002
7FFC
ENDCHAR
ENDFONT
